<svg version="1.1" id="Layer_1" xmlns="http://www.w3.org/2000/svg" xmlns:xlink="http://www.w3.org/1999/xlink" x="0px" y="0px"
	 width="100%" viewBox="0 0 1024 1024" enable-background="new 0 0 1024 1024" xml:space="preserve">
<path fill="#000000" opacity="1.000000" stroke="none"
	d="
M626.365723,754.732361
	C636.524963,778.504822 646.799561,801.818481 656.452271,825.386841
	C667.900208,853.338623 645.820923,882.533020 615.815735,879.029907
	C602.268188,877.448303 591.961975,870.183533 585.706787,857.725464
	C570.163574,826.768555 554.598633,795.822510 539.059753,764.863403
	C505.143219,697.289612 471.340820,629.658142 437.255859,562.169434
	C428.547333,544.926392 419.086334,528.112549 413.642212,509.383179
	C407.819733,489.352356 405.855804,468.922485 405.987885,448.197235
	C406.186371,417.050873 406.522247,385.905060 406.577820,354.758606
	C406.585693,350.348450 407.929382,347.393829 411.271973,344.499420
	C432.427246,326.180420 453.710602,307.989502 474.345520,289.094299
	C501.270325,264.439423 494.538483,221.973526 461.666504,206.109772
	C460.673981,205.630783 459.350037,205.528854 458.882996,204.107498
	C459.960968,201.936127 462.068817,202.743393 463.690063,202.734131
	C478.184601,202.651276 492.679871,202.694351 507.174927,202.710541
	C508.006195,202.711456 508.847687,202.733643 509.666931,202.859726
	C518.345032,204.195435 533.898376,221.310944 534.202576,230.103470
	C534.979797,252.570892 535.545959,275.045715 536.347473,297.512177
	C537.505188,329.960449 538.837219,362.402527 539.978699,394.851288
	C540.122559,398.942810 541.504883,402.204102 544.244995,405.149353
	C549.009155,410.270142 553.577576,415.572723 558.326538,420.708038
	C561.838623,424.505859 562.301880,424.128174 564.761475,419.443726
	C571.737732,406.157013 570.736938,392.547821 568.380798,378.267456
	C562.941528,345.300171 558.510437,312.166992 553.620239,279.108490
	C550.919678,260.852142 548.198975,242.597870 545.314026,224.370102
	C544.399414,218.591843 546.460327,213.503052 548.486511,208.477936
	C549.783752,205.260681 552.991272,204.977982 556.229797,205.700607
	C578.094543,210.579391 597.058899,232.525314 599.422363,254.932220
	C600.626770,266.350098 598.760925,277.523315 597.979126,288.769012
	C596.849060,305.025970 595.030457,321.236725 593.409729,337.457611
	C590.449829,367.081329 587.041992,396.666321 584.550964,426.328766
	C582.874512,446.290344 579.869019,465.956482 574.801514,485.290527
	C568.276367,510.185669 559.144714,534.099670 546.385010,556.512146
	C544.297180,560.179504 544.039062,563.178772 545.755676,567.148926
	C565.909241,613.759033 585.863464,660.455383 605.880676,707.124451
	C612.640625,722.884888 619.429932,738.632690 626.365723,754.732361
z"/>
<path fill="#000000" opacity="1.000000" stroke="none"
	d="
M888.890625,621.915222
	C857.699829,647.467590 826.830322,672.850647 795.823120,698.064453
	C783.719421,707.906738 768.508057,706.482849 758.510742,694.419617
	C732.363159,662.868469 706.347290,631.206909 680.473572,599.430725
	C669.979370,586.542603 671.931091,571.678711 684.791321,561.165100
	C697.557068,550.728638 710.188782,540.128052 722.985718,529.730347
	C725.362976,527.798767 725.902954,526.266968 724.257202,523.496338
	C721.858215,519.457458 720.475830,514.977661 720.613342,510.171448
	C720.673096,508.082306 719.910950,506.698059 717.752380,506.123383
	C708.115112,503.557465 701.273071,497.071136 694.936523,489.839264
	C666.613892,457.514740 638.712830,424.801361 609.629456,393.175659
	C601.636414,384.483887 600.686157,376.172760 601.888977,365.759827
	C604.158325,346.114899 605.783997,326.395813 607.703735,306.710144
	C608.685120,296.646973 609.723999,286.589417 610.720337,276.693481
	C613.482056,276.174500 614.213806,277.915100 615.258118,279.116028
	C658.321350,328.638855 701.378418,378.167145 744.433228,427.697327
	C748.913696,432.851562 753.431396,437.974884 757.831970,443.196747
	C762.313599,448.514801 765.381226,454.550171 766.415405,461.497192
	C766.884888,464.650452 768.169617,466.496796 771.775696,466.819427
	C778.338074,467.406525 783.426086,471.364044 788.749756,475.710999
	C797.385315,468.664948 805.874023,461.736023 814.365906,454.811035
	C819.786194,450.390808 825.190857,445.951111 830.638367,441.564575
	C843.278442,431.386292 858.190979,432.769104 868.717224,445.240479
	C876.667114,454.659271 884.444336,464.224304 892.263184,473.753174
	C910.119080,495.514404 927.948364,517.297485 945.798523,539.063354
	C956.596008,552.229370 954.954590,567.850403 941.722412,578.637817
	C924.170166,592.947327 906.675964,607.328125 888.890625,621.915222
M736.045532,514.959595
	C738.386169,518.102173 740.194580,515.507751 741.808411,514.216736
	C748.690735,508.711212 755.448120,503.049713 762.255249,497.450073
	C767.079041,493.481934 771.909546,489.521851 776.744934,485.551666
	C771.043762,479.243011 766.497620,479.706116 763.050049,486.263062
	C758.109924,495.658813 750.705139,502.353729 740.496765,505.463776
	C735.607971,506.953186 734.026611,509.595978 736.045532,514.959595
z"/>
<path fill="#000000" opacity="1.000000" stroke="none"
	d="
M193.687042,417.753174
	C207.086594,404.246948 221.619873,392.532349 235.595123,380.199249
	C272.550262,347.586548 309.639008,315.125275 346.672150,282.600922
	C369.192749,262.822235 391.603912,242.917328 414.256104,223.290573
	C437.425293,203.215836 471.488190,213.667038 478.492828,243.198685
	C482.091888,258.372253 477.277100,271.567139 465.564178,281.900360
	C430.358734,312.958984 395.055542,343.906830 359.792297,374.899963
	C323.651276,406.664459 287.602417,438.534668 251.339600,470.159546
	C228.786118,489.828491 196.027512,481.749817 187.176727,454.355194
	C182.984482,441.379486 184.969528,429.035034 193.687042,417.753174
z"/>
<path fill="#000000" opacity="1.000000" stroke="none"
	d="
M530.888672,10.697044
	C552.655457,11.970253 572.034363,17.831009 586.807495,34.278732
	C598.921143,47.765472 604.615356,64.198776 607.168030,81.743179
	C609.178345,95.559875 610.302307,109.402550 607.500244,123.420845
	C600.740723,157.238174 571.715759,184.833160 537.534302,189.277390
	C491.016266,195.325592 449.978241,165.001511 443.189758,118.357399
	C439.651184,94.043694 443.084930,70.167519 454.772614,48.119061
	C466.481720,26.030220 485.762329,15.041436 509.972992,11.633678
	C516.766785,10.677421 523.576050,10.608054 530.888672,10.697044
z"/>
<path fill="#000000" opacity="1.000000" stroke="none"
	d="
M395.434113,643.527527
	C406.687592,620.130310 417.767120,597.066162 428.808807,574.080933
	C431.584229,574.875183 431.966522,576.866760 432.748810,578.422729
	C448.152344,609.059265 463.478485,639.734863 478.933929,670.345154
	C480.407043,673.262817 480.050385,675.544189 478.537048,678.244629
	C454.040131,721.958130 429.617737,765.713440 405.167633,809.453186
	C397.125732,823.839661 389.185425,838.285278 380.958740,852.565552
	C372.141205,867.871521 354.598175,875.229126 337.789398,871.011475
	C320.457947,866.662659 308.401367,851.570984 308.153564,833.502869
	C308.065887,827.113770 309.810089,821.039124 312.613739,815.234619
	C334.188385,770.567017 355.699921,725.869019 377.236694,681.183105
	C383.234863,668.737671 389.251862,656.301270 395.434113,643.527527
z"/>
</svg>